<svg xmlns="http://www.w3.org/2000/svg" width="211.14" height="47.626" viewBox="0 0 211.14 47.626">
  <g id="Group_1573" data-name="Group 1573" transform="translate(982.564 7734)">
    <g id="Group_1570" data-name="Group 1570" transform="translate(-982.564 -7734)">
      <path id="Path_2756" data-name="Path 2756" d="M609.338,539.913a8.725,8.725,0,0,1,1.6-2.468,11.376,11.376,0,0,1,2.278-1.948,10.6,10.6,0,0,1,5.913-1.711,10.892,10.892,0,0,1,5.849,1.841,11.98,11.98,0,0,1,3.984,4.287c-1.767-.839-3.386-1.669-5.024-2.251a14.56,14.56,0,0,0-4.853-.971,13.559,13.559,0,0,0-4.847.841A28.467,28.467,0,0,0,609.338,539.913Z" transform="translate(-475.187 -533.783)" fill="#dd7e33"/>
      <path id="Path_2757" data-name="Path 2757" d="M582.056,641.217a20.149,20.149,0,0,1-1.936,2.577,26.586,26.586,0,0,1-2.263,2.323,29.47,29.47,0,0,1-5.286,3.852,26.13,26.13,0,0,1-6.134,2.525c-.54.141-1.088.252-1.633.375s-1.1.176-1.658.266l-.416.06-.42.029-.839.056a15.862,15.862,0,0,1-1.681.036,24.055,24.055,0,0,1-6.613-1.009,27.124,27.124,0,0,1-6.071-2.623,34.216,34.216,0,0,1-9.732-8.465,62.693,62.693,0,0,0,10.772,6.429l.7.315a6.492,6.492,0,0,0,.709.291l1.429.536.357.133.365.106.727.218a13.371,13.371,0,0,0,1.459.4l1.47.331,1.485.224a6.258,6.258,0,0,0,.744.087l.746.063c.249.018.5.051.746.056l.748.005a27.716,27.716,0,0,0,11.717-2.475,39.6,39.6,0,0,0,5.44-2.942A43.778,43.778,0,0,0,582.056,641.217Z" transform="translate(-427.017 -605.694)" fill="#dd7e33"/>
      <path id="Path_2758" data-name="Path 2758" d="M223.725,572.717a.576.576,0,0,1,.482.27l1.872,3.165a.654.654,0,0,1,.2.569,1.09,1.09,0,0,1-.415.511,12.907,12.907,0,0,1-8.028,2.567,13.9,13.9,0,0,1-5.539-1.11,14.27,14.27,0,0,1-4.516-3.04,14.444,14.444,0,0,1-3.049-4.506,14.195,14.195,0,0,1,0-11.049,14.172,14.172,0,0,1,7.566-7.488,14,14,0,0,1,5.539-1.1,12.977,12.977,0,0,1,8.067,2.567.675.675,0,0,1,.318.5.747.747,0,0,1-.087.425l-1.969,3.319a.486.486,0,0,1-.444.212,1.131,1.131,0,0,1-.6-.193,13.724,13.724,0,0,0-2.548-1.255,8.063,8.063,0,0,0-2.74-.443,8.639,8.639,0,0,0-3.474.694,8.465,8.465,0,0,0-2.77,1.911,8.955,8.955,0,0,0-1.833,2.846,9.234,9.234,0,0,0-.666,3.522,9.4,9.4,0,0,0,.666,3.532,9.092,9.092,0,0,0,1.833,2.9,8.681,8.681,0,0,0,2.77,1.959,8.627,8.627,0,0,0,6.331.232,9.444,9.444,0,0,0,2.354-1.226A1.192,1.192,0,0,1,223.725,572.717Z" transform="translate(-203.615 -545.646)" fill="#2d2d2d"/>
      <path id="Path_2759" data-name="Path 2759" d="M365.54,582.771a.8.8,0,0,1,.328-.733l2.374-1.795a.592.592,0,0,1,.405-.154.856.856,0,0,1,.675.425,11.757,11.757,0,0,0,.8,1.013,5.294,5.294,0,0,0,.984.868,5.059,5.059,0,0,0,1.225.608,4.684,4.684,0,0,0,1.525.232,5.384,5.384,0,0,0,1.409-.193,5.063,5.063,0,0,0,1.293-.54,3.181,3.181,0,0,0,.946-.849,1.883,1.883,0,0,0,.367-1.139,2.018,2.018,0,0,0-.3-1.177,2.323,2.323,0,0,0-.869-.714,7.284,7.284,0,0,0-1.389-.512q-.82-.221-1.882-.531a19.911,19.911,0,0,1-3.185-1.245,8.4,8.4,0,0,1-2.229-1.583,5.839,5.839,0,0,1-1.312-2.055,7.494,7.494,0,0,1-.435-2.644,5.444,5.444,0,0,1,.56-2.355,6.837,6.837,0,0,1,1.612-2.132,8.3,8.3,0,0,1,2.567-1.554,10.128,10.128,0,0,1,6.06-.251,10.239,10.239,0,0,1,2.133.878,8.334,8.334,0,0,1,1.65,1.2,12.25,12.25,0,0,1,1.206,1.3,1.246,1.246,0,0,1,.28.6q.029.271-.357.579l-2.2,1.814a.73.73,0,0,1-.5.212A.791.791,0,0,1,378.7,570a6.721,6.721,0,0,0-1.708-1.428,4.808,4.808,0,0,0-2.422-.54,3.626,3.626,0,0,0-2.316.637,1.954,1.954,0,0,0-.791,1.583,1.651,1.651,0,0,0,.366,1.119,2.97,2.97,0,0,0,1.062.734,12,12,0,0,0,1.679.579q.984.27,2.219.637a11.1,11.1,0,0,1,2.847,1.274,7.979,7.979,0,0,1,1.94,1.727,6.631,6.631,0,0,1,1.11,2.046,7.19,7.19,0,0,1,.357,2.248,6.208,6.208,0,0,1-.782,3.165,7.043,7.043,0,0,1-2.027,2.239,9.037,9.037,0,0,1-2.808,1.331,11.449,11.449,0,0,1-3.146.444,10.33,10.33,0,0,1-5.018-1.177,9.255,9.255,0,0,1-3.435-3.165A2.062,2.062,0,0,1,365.54,582.771Z" transform="translate(-311.992 -553.616)" fill="#2d2d2d"/>
      <path id="Path_2760" data-name="Path 2760" d="M445.277,561.5a9.61,9.61,0,0,0-.289-2.412,5.666,5.666,0,0,0-.9-1.949,4.393,4.393,0,0,0-1.534-1.313,4.664,4.664,0,0,0-2.181-.482,4.8,4.8,0,0,0-1.959.4,4.7,4.7,0,0,0-1.592,1.149,5.362,5.362,0,0,0-1.061,1.814,7.054,7.054,0,0,0-.386,2.4V573.29a.864.864,0,0,1-.193.589.725.725,0,0,1-.579.222h-3.841q-.772,0-.772-.811V544.379q0-.81.772-.81H434.6a.717.717,0,0,1,.569.232.846.846,0,0,1,.2.579v8.82a9.529,9.529,0,0,1,2.77-2.084,7.591,7.591,0,0,1,3.426-.772,9.37,9.37,0,0,1,3.136.483,8.107,8.107,0,0,1,2.374,1.293,7.513,7.513,0,0,1,1.689,1.891,11.164,11.164,0,0,1,1.091,2.287,13.626,13.626,0,0,1,.6,2.461,16.677,16.677,0,0,1,.183,2.412v12.12a.864.864,0,0,1-.193.589.725.725,0,0,1-.579.222H446.03q-.753,0-.753-.811Z" transform="translate(-355.141 -540.333)" fill="#2d2d2d"/>
      <path id="Path_2761" data-name="Path 2761" d="M506.385,553.505q0-.772.733-.772h3.918q.734,0,.733.772v25.977a.657.657,0,0,1-.733.753h-3.918a.657.657,0,0,1-.733-.753Z" transform="translate(-406.275 -546.467)" fill="#2d2d2d"/>
      <path id="Path_2762" data-name="Path 2762" d="M544.742,587.334a.979.979,0,0,1-.946.675H541.77a.954.954,0,0,1-.55-.164,1.171,1.171,0,0,1-.4-.512l-8.917-21.75a.922.922,0,0,1-.019-.917.824.824,0,0,1,.714-.319h3.783a.936.936,0,0,1,.926.734l5.462,15.189,5.462-15.247a.949.949,0,0,1,.376-.531,1.046,1.046,0,0,1,.55-.145h4.227a.543.543,0,0,1,.55.271,1.1,1.1,0,0,1-.106.83Z" transform="translate(-423.271 -554.242)" fill="#2d2d2d"/>
      <path id="Path_2763" data-name="Path 2763" d="M602.807,571.05a12.126,12.126,0,0,1,6.456-6.446,11.837,11.837,0,0,1,4.729-.955,12.028,12.028,0,0,1,4.767.955,12.464,12.464,0,0,1,3.908,2.605,12.288,12.288,0,0,1,2.635,3.86,12.047,12.047,0,0,1,0,9.447,12.254,12.254,0,0,1-2.635,3.87,12.611,12.611,0,0,1-3.9,2.615,11.847,11.847,0,0,1-4.757.965,11.727,11.727,0,0,1-4.728-.965,12.235,12.235,0,0,1-6.475-6.484,12.2,12.2,0,0,1,0-9.466Zm4.835,7.565a7.047,7.047,0,0,0,1.409,2.306,6.723,6.723,0,0,0,2.171,1.564,6.621,6.621,0,0,0,2.789.579,6.8,6.8,0,0,0,2.827-.579,6.714,6.714,0,0,0,2.2-1.573,7.215,7.215,0,0,0,1.428-2.316,7.937,7.937,0,0,0,0-5.607,7.042,7.042,0,0,0-1.438-2.3,6.763,6.763,0,0,0-2.21-1.554,6.855,6.855,0,0,0-2.808-.569,6.771,6.771,0,0,0-2.77.56,6.594,6.594,0,0,0-2.181,1.544,6.99,6.99,0,0,0-1.418,2.3,8.188,8.188,0,0,0,0,5.645Z" transform="translate(-470.176 -553.773)" fill="#2d2d2d"/>
      <path id="Path_2764" data-name="Path 2764" d="M686.767,539.9a1.334,1.334,0,0,1,.261-.84,1.069,1.069,0,0,1,.9-.338h3.223a.969.969,0,0,1,.811.318,1.352,1.352,0,0,1,.251.859v3.242a1,1,0,0,1-.28.82,1.225,1.225,0,0,1-.782.222h-3.223a1.445,1.445,0,0,1-.83-.222.919.919,0,0,1-.328-.82Zm.154,8.048a.7.7,0,0,1,.222-.569.781.781,0,0,1,.511-.184h3.937a.686.686,0,0,1,.521.2.765.765,0,0,1,.193.55v22.156q0,.753-.714.753h-3.937a.657.657,0,0,1-.734-.753Z" transform="translate(-527.014 -537.091)" fill="#2d2d2d"/>
      <path id="Path_2765" data-name="Path 2765" d="M720.258,564.651q0-.791.734-.791h2.663a1.907,1.907,0,0,1,.7.126q.318.125.434.743l.367,2.026a6.783,6.783,0,0,1,2.374-2.326,6.308,6.308,0,0,1,3.223-.84,7.036,7.036,0,0,1,2.094.309,11.764,11.764,0,0,1,1.814.724,10,10,0,0,1,1.409.85,10.508,10.508,0,0,1,.878.7,1.038,1.038,0,0,1,.425.685.988.988,0,0,1-.212.589l-1.737,2.451a.576.576,0,0,1-.5.309,1.049,1.049,0,0,1-.579-.232,9.349,9.349,0,0,0-.81-.531,8.51,8.51,0,0,0-.965-.483,6.55,6.55,0,0,0-1.119-.357,5.782,5.782,0,0,0-1.274-.135,4.786,4.786,0,0,0-1.679.309,4.12,4.12,0,0,0-1.486.965,4.932,4.932,0,0,0-1.061,1.65,6.3,6.3,0,0,0-.405,2.384v12.95q.038.772-.753.772h-3.8q-.734,0-.734-.772Z" transform="translate(-549.431 -553.734)" fill="#2d2d2d"/>
      <path id="Path_2766" data-name="Path 2766" d="M788.991,580.921a.6.6,0,0,1,.232.049.513.513,0,0,1,.212.183l1.891,2.316a.738.738,0,0,1-.058,1.12,14.188,14.188,0,0,1-4.159,2.625,12.058,12.058,0,0,1-4.372.791,11.441,11.441,0,0,1-4.622-.955,12.563,12.563,0,0,1-6.513-6.456,11.4,11.4,0,0,1-.985-4.709,12.425,12.425,0,0,1,.9-4.719,12.116,12.116,0,0,1,2.49-3.87,11.715,11.715,0,0,1,3.792-2.625,11.836,11.836,0,0,1,4.806-.965,11.628,11.628,0,0,1,2.653.319,12.274,12.274,0,0,1,2.664.965,12.116,12.116,0,0,1,2.461,1.631,10.272,10.272,0,0,1,2.017,2.335,12.122,12.122,0,0,1,1.37,3.078,13.548,13.548,0,0,1,.511,3.85,5.033,5.033,0,0,1-.077.985,1.068,1.068,0,0,1-.29.569,1.1,1.1,0,0,1-.579.27,5.392,5.392,0,0,1-.945.067h-16.6a7.275,7.275,0,0,0,.946,2.287,6.914,6.914,0,0,0,3.629,2.876,7.293,7.293,0,0,0,2.412.4,8.86,8.86,0,0,0,2.084-.213,6.684,6.684,0,0,0,1.515-.55,6.917,6.917,0,0,0,1.139-.733q.492-.4.974-.743A.875.875,0,0,1,788.991,580.921Zm-8.569-12.3a6.89,6.89,0,0,0-1.9,1.091,7.864,7.864,0,0,0-1.506,1.621A8.067,8.067,0,0,0,776,573.317h13.221a8.995,8.995,0,0,0-1.052-2.055,7.6,7.6,0,0,0-1.487-1.612,6.575,6.575,0,0,0-1.862-1.052,6.467,6.467,0,0,0-4.4.019Z" transform="translate(-583.14 -553.812)" fill="#2d2d2d"/>
      <path id="Path_2767" data-name="Path 2767" d="M276.312,574.51s2.888-5.653,7.926-5.776l7.127,8.356s-8.295-.983-13.7,5.837a11.347,11.347,0,0,1,9.4-7.618s-3.748-4.977-3.748-5.346C283.316,569.964,280.858,569.78,276.312,574.51Zm9.493,4.27c-6.7.768-9.493,7.65-9.493,7.65a14.638,14.638,0,0,1,13.578-5.53l-2.7-3.195-1.782.491Zm2.335,5.837-2.642-3.041-1.935.492.491.676c-6.359.4-9.216,7.465-9.216,7.465A15.458,15.458,0,0,1,288.139,584.617Z" transform="translate(-251.288 -557.178)" fill="#dd7e33"/>
      <path id="Path_2768" data-name="Path 2768" d="M312.37,563.88h-3.088a.657.657,0,0,0-.54.193,1.211,1.211,0,0,0-.212.579l-.328,2.316a9.461,9.461,0,0,0-3.358-2.519,10.667,10.667,0,0,0-4.265-.8,11.4,11.4,0,0,0-4.327.832l3.043,4.129a6.767,6.767,0,0,1,1.515-.175,6.517,6.517,0,0,1,2.75.589,7.216,7.216,0,0,1,2.239,1.592,7.531,7.531,0,0,1,2.055,5.191,7.6,7.6,0,0,1-.531,2.837,7.325,7.325,0,0,1-1.476,2.335,7.059,7.059,0,0,1-2.239,1.592,6.851,6.851,0,0,1-5.236.133,23.93,23.93,0,0,0-6.518,1.44c.129.138.251.283.387.415a12.079,12.079,0,0,0,3.821,2.509,11.665,11.665,0,0,0,4.516.9,9.725,9.725,0,0,0,3.966-.83,11.423,11.423,0,0,0,3.387-2.3v1.544a1.142,1.142,0,0,0,.318.83,1.092,1.092,0,0,0,.82.328h3.3q.734,0,.733-.772V564.651Q313.1,563.88,312.37,563.88Z" transform="translate(-262.678 -553.773)" fill="#2d2d2d"/>
    </g>
  </g>
</svg>
